<svg xmlns="http://www.w3.org/2000/svg" xmlns:xlink="http://www.w3.org/1999/xlink" width="500" zoomAndPan="magnify" viewBox="0 0 375 374.999991" height="500" preserveAspectRatio="xMidYMid meet" version="1.0"><defs><g/><clipPath id="f799c83bfd"><path d="M 110.363281 158.753906 L 264.863281 158.753906 L 264.863281 245.753906 L 110.363281 245.753906 Z M 110.363281 158.753906 " clip-rule="nonzero"/></clipPath><clipPath id="7794839981"><path d="M 128.753906 199 L 148 199 L 148 230.472656 L 128.753906 230.472656 Z M 128.753906 199 " clip-rule="nonzero"/></clipPath><clipPath id="a06dea72d9"><path d="M 158 195 L 178 195 L 178 230.472656 L 158 230.472656 Z M 158 195 " clip-rule="nonzero"/></clipPath><clipPath id="e269844781"><path d="M 188 184 L 208 184 L 208 230.472656 L 188 230.472656 Z M 188 184 " clip-rule="nonzero"/></clipPath><clipPath id="1417e61c86"><path d="M 218 166 L 237.503906 166 L 237.503906 230.472656 L 218 230.472656 Z M 218 166 " clip-rule="nonzero"/></clipPath><clipPath id="a5fa93ec79"><path d="M 128.753906 116.472656 L 237.503906 116.472656 L 237.503906 190 L 128.753906 190 Z M 128.753906 116.472656 " clip-rule="nonzero"/></clipPath><clipPath id="d937094b42"><path d="M 199.183594 109.507812 L 259.109375 109.507812 L 259.109375 127 L 199.183594 127 Z M 199.183594 109.507812 " clip-rule="nonzero"/></clipPath><clipPath id="384730fc70"><path d="M 207.929688 109.507812 L 250.300781 109.507812 C 252.621094 109.507812 254.84375 110.429688 256.484375 112.070312 C 258.125 113.710938 259.046875 115.933594 259.046875 118.253906 C 259.046875 120.574219 258.125 122.796875 256.484375 124.4375 C 254.84375 126.078125 252.621094 127 250.300781 127 L 207.929688 127 C 205.609375 127 203.386719 126.078125 201.746094 124.4375 C 200.105469 122.796875 199.183594 120.574219 199.183594 118.253906 C 199.183594 115.933594 200.105469 113.710938 201.746094 112.070312 C 203.386719 110.429688 205.609375 109.507812 207.929688 109.507812 Z M 207.929688 109.507812 " clip-rule="nonzero"/></clipPath><clipPath id="2151049465"><path d="M 115.703125 172.355469 L 183 172.355469 L 183 192.84375 L 115.703125 192.84375 Z M 115.703125 172.355469 " clip-rule="nonzero"/></clipPath><clipPath id="a9bb854531"><path d="M 125.945312 172.355469 L 172.707031 172.355469 C 178.367188 172.355469 182.953125 176.941406 182.953125 182.601562 C 182.953125 188.257812 178.367188 192.84375 172.707031 192.84375 L 125.945312 192.84375 C 120.289062 192.84375 115.703125 188.257812 115.703125 182.601562 C 115.703125 176.941406 120.289062 172.355469 125.945312 172.355469 Z M 125.945312 172.355469 " clip-rule="nonzero"/></clipPath><clipPath id="f0d3ff19d1"><path d="M 149.328125 165.105469 L 209.253906 165.105469 L 209.253906 182.601562 L 149.328125 182.601562 Z M 149.328125 165.105469 " clip-rule="nonzero"/></clipPath><clipPath id="c1458e90a1"><path d="M 158.074219 165.105469 L 200.445312 165.105469 C 202.765625 165.105469 204.988281 166.027344 206.628906 167.667969 C 208.269531 169.308594 209.191406 171.535156 209.191406 173.855469 C 209.191406 176.171875 208.269531 178.398438 206.628906 180.039062 C 204.988281 181.679688 202.765625 182.601562 200.445312 182.601562 L 158.074219 182.601562 C 155.753906 182.601562 153.53125 181.679688 151.890625 180.039062 C 150.25 178.398438 149.328125 176.171875 149.328125 173.855469 C 149.328125 171.535156 150.25 169.308594 151.890625 167.667969 C 153.53125 166.027344 155.753906 165.105469 158.074219 165.105469 Z M 158.074219 165.105469 " clip-rule="nonzero"/></clipPath><clipPath id="b251c9648c"><path d="M 171.667969 155.855469 L 245.902344 155.855469 L 245.902344 168.585938 L 171.667969 168.585938 Z M 171.667969 155.855469 " clip-rule="nonzero"/></clipPath><clipPath id="ea9f4fdd41"><path d="M 178.03125 155.855469 L 239.503906 155.855469 C 243.019531 155.855469 245.867188 158.707031 245.867188 162.222656 C 245.867188 165.738281 243.019531 168.585938 239.503906 168.585938 L 178.03125 168.585938 C 174.519531 168.585938 171.667969 165.738281 171.667969 162.222656 C 171.667969 158.707031 174.519531 155.855469 178.03125 155.855469 Z M 178.03125 155.855469 " clip-rule="nonzero"/></clipPath><clipPath id="6f07b6a28f"><path d="M 182.953125 135.367188 L 250.257812 135.367188 L 250.257812 155.855469 L 182.953125 155.855469 Z M 182.953125 135.367188 " clip-rule="nonzero"/></clipPath><clipPath id="7e48455ce7"><path d="M 193.195312 135.367188 L 239.957031 135.367188 C 245.613281 135.367188 250.203125 139.957031 250.203125 145.613281 C 250.203125 151.269531 245.613281 155.855469 239.957031 155.855469 L 193.195312 155.855469 C 187.539062 155.855469 182.953125 151.269531 182.953125 145.613281 C 182.953125 139.957031 187.539062 135.367188 193.195312 135.367188 Z M 193.195312 135.367188 " clip-rule="nonzero"/></clipPath><clipPath id="c41ff71526"><path d="M 191.796875 118.253906 L 259.105469 118.253906 L 259.105469 138.742188 L 191.796875 138.742188 Z M 191.796875 118.253906 " clip-rule="nonzero"/></clipPath><clipPath id="82558e6086"><path d="M 202.042969 118.253906 L 248.804688 118.253906 C 254.460938 118.253906 259.046875 122.839844 259.046875 128.496094 C 259.046875 134.15625 254.460938 138.742188 248.804688 138.742188 L 202.042969 138.742188 C 196.382812 138.742188 191.796875 134.15625 191.796875 128.496094 C 191.796875 122.839844 196.382812 118.253906 202.042969 118.253906 Z M 202.042969 118.253906 " clip-rule="nonzero"/></clipPath><clipPath id="45f7f2125f"><path d="M 173 111 L 249 111 L 249 182 L 173 182 Z M 173 111 " clip-rule="nonzero"/></clipPath><clipPath id="b9c754249b"><path d="M 168.191406 165.671875 L 233.246094 98.164062 L 271.046875 134.59375 L 205.996094 202.101562 Z M 168.191406 165.671875 " clip-rule="nonzero"/></clipPath><clipPath id="eb39837003"><path d="M 168.191406 165.671875 L 233.246094 98.164062 L 271.046875 134.59375 L 205.996094 202.101562 Z M 168.191406 165.671875 " clip-rule="nonzero"/></clipPath><clipPath id="a9e2aeb642"><path d="M 168.191406 165.671875 L 233.246094 98.164062 L 271.046875 134.59375 L 205.996094 202.101562 Z M 168.191406 165.671875 " clip-rule="nonzero"/></clipPath></defs><rect x="-37.5" width="450" fill="#ffffff" y="-37.499999" height="449.999989" fill-opacity="1"/><rect x="-37.5" width="450" fill="#ffffff" y="-37.499999" height="449.999989" fill-opacity="1"/><g clip-path="url(#f799c83bfd)"><path fill="#000000" d="M 258.285156 177.183594 L 251.765625 177.183594 L 251.765625 168.699219 C 251.765625 163.246094 247.332031 158.808594 241.878906 158.808594 L 120.230469 158.808594 C 114.777344 158.808594 110.339844 163.246094 110.339844 168.699219 L 110.339844 235.355469 C 110.339844 240.808594 114.777344 245.246094 120.230469 245.246094 L 241.878906 245.246094 C 247.332031 245.246094 251.765625 240.808594 251.765625 235.355469 L 251.765625 226.867188 L 258.285156 226.867188 C 261.796875 226.867188 264.652344 224.015625 264.652344 220.511719 L 264.652344 183.550781 C 264.65625 180.039062 261.796875 177.183594 258.285156 177.183594 Z M 260.699219 220.507812 C 260.699219 221.832031 259.617188 222.90625 258.289062 222.90625 L 249.792969 222.90625 C 248.703125 222.90625 247.816406 223.792969 247.816406 224.886719 L 247.816406 235.351562 C 247.816406 238.625 245.152344 241.285156 241.882812 241.285156 L 120.230469 241.285156 C 116.960938 241.285156 114.296875 238.625 114.296875 235.351562 L 114.296875 168.699219 C 114.296875 165.425781 116.960938 162.765625 120.230469 162.765625 L 241.878906 162.765625 C 245.148438 162.765625 247.8125 165.425781 247.8125 168.699219 L 247.8125 179.160156 C 247.8125 180.25 248.699219 181.136719 249.789062 181.136719 L 258.285156 181.136719 C 259.613281 181.136719 260.695312 182.21875 260.695312 183.546875 L 260.695312 220.507812 Z M 260.699219 220.507812 " fill-opacity="1" fill-rule="nonzero"/></g><g clip-path="url(#7794839981)"><path fill="#2f93ff" d="M 128.761719 199.503906 L 147.863281 199.503906 L 147.863281 230.683594 L 128.761719 230.683594 Z M 128.761719 199.503906 " fill-opacity="1" fill-rule="nonzero"/></g><g clip-path="url(#a06dea72d9)"><path fill="#2f93ff" d="M 158.382812 230.683594 L 158.382812 195.214844 L 177.648438 195.214844 L 177.648438 230.683594 Z M 158.382812 230.683594 " fill-opacity="1" fill-rule="nonzero"/></g><g clip-path="url(#e269844781)"><path fill="#2f93ff" d="M 188.011719 184.6875 L 207.890625 184.6875 L 207.890625 230.683594 L 188.011719 230.683594 Z M 188.011719 184.6875 " fill-opacity="1" fill-rule="nonzero"/></g><g clip-path="url(#1417e61c86)"><path fill="#2f93ff" d="M 218.414062 166.367188 L 237.125 166.367188 L 237.125 230.683594 L 218.414062 230.683594 Z M 218.414062 166.367188 " fill-opacity="1" fill-rule="nonzero"/></g><g clip-path="url(#a5fa93ec79)"><path fill="#2f93ff" d="M 128.761719 188.816406 C 128.761719 188.816406 179.433594 181.972656 214.128906 135.964844 L 202.824219 128.558594 L 237.132812 116.472656 L 237.132812 152.644531 L 227.777344 144.539062 C 227.777344 144.539062 185.28125 192.550781 128.761719 188.816406 Z M 128.761719 188.816406 " fill-opacity="1" fill-rule="nonzero"/></g><g clip-path="url(#d937094b42)"><g clip-path="url(#384730fc70)"><path fill="#ffffff" d="M 199.183594 109.507812 L 259.042969 109.507812 L 259.042969 127 L 199.183594 127 Z M 199.183594 109.507812 " fill-opacity="1" fill-rule="nonzero"/></g></g><g clip-path="url(#2151049465)"><g clip-path="url(#a9bb854531)"><path fill="#ffffff" d="M 115.703125 172.355469 L 182.929688 172.355469 L 182.929688 192.84375 L 115.703125 192.84375 Z M 115.703125 172.355469 " fill-opacity="1" fill-rule="nonzero"/></g></g><g clip-path="url(#f0d3ff19d1)"><g clip-path="url(#c1458e90a1)"><path fill="#ffffff" d="M 149.328125 165.105469 L 209.1875 165.105469 L 209.1875 182.601562 L 149.328125 182.601562 Z M 149.328125 165.105469 " fill-opacity="1" fill-rule="nonzero"/></g></g><g clip-path="url(#b251c9648c)"><g clip-path="url(#ea9f4fdd41)"><path fill="#ffffff" d="M 171.667969 155.855469 L 245.855469 155.855469 L 245.855469 168.585938 L 171.667969 168.585938 Z M 171.667969 155.855469 " fill-opacity="1" fill-rule="nonzero"/></g></g><g clip-path="url(#6f07b6a28f)"><g clip-path="url(#7e48455ce7)"><path fill="#ffffff" d="M 182.953125 135.367188 L 250.179688 135.367188 L 250.179688 155.855469 L 182.953125 155.855469 Z M 182.953125 135.367188 " fill-opacity="1" fill-rule="nonzero"/></g></g><g clip-path="url(#c41ff71526)"><g clip-path="url(#82558e6086)"><path fill="#ffffff" d="M 191.796875 118.253906 L 259.023438 118.253906 L 259.023438 138.742188 L 191.796875 138.742188 Z M 191.796875 118.253906 " fill-opacity="1" fill-rule="nonzero"/></g></g><g clip-path="url(#45f7f2125f)"><g clip-path="url(#b9c754249b)"><g clip-path="url(#eb39837003)"><g clip-path="url(#a9e2aeb642)"><path fill="#000000" d="M 240.691406 113.699219 C 243.195312 112.566406 245.585938 110.085938 247.601562 112.027344 C 252.359375 116.613281 236.152344 139.109375 235.441406 139.84375 L 243.34375 160.042969 C 243.996094 161.5625 243.652344 162.472656 243.03125 163.292969 L 241.175781 165.585938 L 231.292969 156.0625 L 223.644531 156.667969 C 223.203125 157.128906 221.085938 160.234375 215.773438 165.746094 C 209.574219 172.183594 207.617188 173.667969 207.171875 174.125 L 209.578125 177.859375 C 210.039062 178.484375 208.804688 180.308594 208.175781 180.230469 L 200.589844 179.308594 C 199.972656 179.949219 198.195312 181.429688 197.644531 180.898438 C 196.914062 180.195312 196.90625 179.65625 197.078125 179.113281 L 183.84375 179.835938 C 182.945312 179.851562 183.625 177.316406 185.769531 176.550781 L 195.53125 172.835938 L 189.777344 168.179688 L 191.011719 166.355469 C 191.453125 165.714844 193.429688 165.3125 194.144531 165.296875 L 203.878906 165.453125 L 210.296875 155.679688 L 202.640625 155.753906 L 173.839844 162.921875 L 174.15625 160.214844 C 174.15625 160.214844 174.144531 159.492188 175.382812 158.207031 L 223.933594 135.671875 L 232.636719 122.425781 C 232.988281 121.878906 233.75 118.890625 235.964844 116.589844 C 238.359375 114.109375 238.8125 114.546875 240.691406 113.695312 " fill-opacity="1" fill-rule="nonzero"/></g></g></g></g><g fill="#000000" fill-opacity="1"><g transform="translate(96.799802, 272.735519)"><g><path d="M 15.117188 -3.972656 L 7.304688 -3.972656 C 6.835938 -3.972656 6.460938 -4.039062 6.148438 -4.128906 C 5.859375 -4.238281 5.660156 -4.394531 5.484375 -4.617188 C 5.304688 -4.863281 5.171875 -5.195312 5.105469 -5.617188 C 5.082031 -5.726562 5.082031 -5.882812 5.0625 -5.992188 C 5.0625 -5.992188 5.082031 -7.59375 5.105469 -7.59375 L 15.03125 -7.59375 C 15.207031 -7.59375 15.652344 -7.679688 15.652344 -8.371094 L 15.652344 -10.125 C 15.652344 -10.8125 15.207031 -10.878906 15.03125 -10.878906 L 3.574219 -10.855469 C 2.929688 -10.8125 2.375 -10.476562 2.066406 -9.921875 C 1.953125 -9.746094 1.863281 -9.566406 1.820312 -9.367188 L 1.777344 -6.570312 L 1.777344 -6.460938 C 1.796875 -5.417969 1.910156 -4.527344 2.066406 -3.796875 C 2.265625 -2.90625 2.597656 -2.175781 3.019531 -1.621094 C 3.464844 -1.042969 4.039062 -0.644531 4.75 -0.398438 C 5.4375 -0.132812 6.261719 -0.0234375 7.238281 -0.0234375 L 15.117188 -0.0234375 C 15.316406 -0.0234375 15.761719 -0.0898438 15.761719 -0.777344 L 15.761719 -3.21875 C 15.761719 -3.90625 15.316406 -3.972656 15.117188 -3.972656 Z M 15.140625 -18.335938 L 2.375 -18.335938 C 2.199219 -18.335938 1.777344 -18.25 1.777344 -17.539062 L 1.777344 -15.804688 C 1.777344 -15.117188 2.199219 -15.050781 2.375 -15.050781 L 15.140625 -15.03125 C 15.316406 -15.03125 15.761719 -15.117188 15.761719 -15.804688 L 15.761719 -17.558594 C 15.761719 -18.25 15.316406 -18.335938 15.140625 -18.335938 Z M 15.140625 -18.335938 "/></g></g></g><g fill="#000000" fill-opacity="1"><g transform="translate(115.443841, 272.735519)"><g><path d="M 14.585938 -3.285156 L 7.371094 -3.285156 C 6.902344 -3.285156 6.527344 -3.328125 6.214844 -3.441406 C 5.949219 -3.53125 5.726562 -3.683594 5.570312 -3.929688 C 5.394531 -4.171875 5.261719 -4.507812 5.195312 -4.90625 C 5.105469 -5.351562 5.082031 -5.90625 5.082031 -6.570312 L 5.082031 -17.515625 C 5.082031 -18.226562 4.640625 -18.292969 4.460938 -18.292969 L 2.417969 -18.292969 C 2.21875 -18.292969 1.777344 -18.226562 1.777344 -17.515625 L 1.777344 -6.949219 C 1.777344 -5.707031 1.886719 -4.640625 2.085938 -3.773438 C 2.285156 -2.886719 2.597656 -2.152344 3.042969 -1.597656 C 3.484375 -1.019531 4.0625 -0.597656 4.773438 -0.355469 C 5.4375 -0.109375 6.28125 0.0234375 7.257812 0.0234375 L 14.585938 0.0234375 C 14.785156 0.0234375 15.207031 -0.0664062 15.207031 -0.753906 L 15.207031 -2.507812 C 15.207031 -3.195312 14.785156 -3.285156 14.585938 -3.285156 Z M 14.585938 -3.285156 "/></g></g></g><g fill="#000000" fill-opacity="1"><g transform="translate(133.532989, 272.735519)"><g><path d="M 15.117188 -3.972656 L 7.304688 -3.972656 C 6.835938 -3.972656 6.460938 -4.039062 6.148438 -4.128906 C 5.859375 -4.238281 5.660156 -4.394531 5.484375 -4.617188 C 5.304688 -4.863281 5.171875 -5.195312 5.105469 -5.617188 C 5.082031 -5.726562 5.082031 -5.882812 5.0625 -5.992188 C 5.0625 -5.992188 5.082031 -7.59375 5.105469 -7.59375 L 15.03125 -7.59375 C 15.207031 -7.59375 15.652344 -7.679688 15.652344 -8.371094 L 15.652344 -10.125 C 15.652344 -10.8125 15.207031 -10.878906 15.03125 -10.878906 L 3.574219 -10.855469 C 2.929688 -10.8125 2.375 -10.476562 2.066406 -9.921875 C 1.953125 -9.746094 1.863281 -9.566406 1.820312 -9.367188 L 1.777344 -6.570312 L 1.777344 -6.460938 C 1.796875 -5.417969 1.910156 -4.527344 2.066406 -3.796875 C 2.265625 -2.90625 2.597656 -2.175781 3.019531 -1.621094 C 3.464844 -1.042969 4.039062 -0.644531 4.75 -0.398438 C 5.4375 -0.132812 6.261719 -0.0234375 7.238281 -0.0234375 L 15.117188 -0.0234375 C 15.316406 -0.0234375 15.761719 -0.0898438 15.761719 -0.777344 L 15.761719 -3.21875 C 15.761719 -3.90625 15.316406 -3.972656 15.117188 -3.972656 Z M 15.140625 -18.335938 L 2.375 -18.335938 C 2.199219 -18.335938 1.777344 -18.25 1.777344 -17.539062 L 1.777344 -15.804688 C 1.777344 -15.117188 2.199219 -15.050781 2.375 -15.050781 L 15.140625 -15.03125 C 15.316406 -15.03125 15.761719 -15.117188 15.761719 -15.804688 L 15.761719 -17.558594 C 15.761719 -18.25 15.316406 -18.335938 15.140625 -18.335938 Z M 15.140625 -18.335938 "/></g></g></g><g fill="#000000" fill-opacity="1"><g transform="translate(152.177027, 272.735519)"><g><path d="M 15.339844 -18.292969 L 7.257812 -18.292969 C 6.28125 -18.292969 5.4375 -18.160156 4.75 -17.914062 C 4.039062 -17.648438 3.464844 -17.226562 3.042969 -16.671875 C 2.597656 -16.117188 2.265625 -15.382812 2.066406 -14.496094 C 1.863281 -13.628906 1.777344 -12.566406 1.777344 -11.34375 L 1.777344 -6.949219 C 1.777344 -5.707031 1.863281 -4.640625 2.066406 -3.75 C 2.265625 -2.886719 2.597656 -2.152344 3.042969 -1.578125 C 3.484375 -1.019531 4.0625 -0.597656 4.75 -0.355469 C 5.4375 -0.109375 6.28125 0.0234375 7.257812 0.0234375 L 15.339844 0.0234375 C 15.519531 0.0234375 15.960938 -0.0664062 15.960938 -0.753906 L 15.960938 -2.507812 C 15.960938 -3.195312 15.519531 -3.285156 15.339844 -3.285156 L 7.371094 -3.285156 C 6.902344 -3.285156 6.503906 -3.328125 6.214844 -3.441406 C 5.925781 -3.53125 5.726562 -3.683594 5.550781 -3.929688 C 5.371094 -4.152344 5.261719 -4.484375 5.171875 -4.90625 C 5.105469 -5.351562 5.0625 -5.90625 5.0625 -6.570312 L 5.0625 -11.742188 C 5.0625 -12.410156 5.105469 -12.964844 5.171875 -13.386719 C 5.261719 -13.808594 5.371094 -14.121094 5.550781 -14.363281 C 5.726562 -14.609375 5.925781 -14.761719 6.214844 -14.851562 C 6.503906 -14.960938 6.902344 -15.007812 7.371094 -15.007812 L 15.339844 -15.007812 C 15.519531 -15.007812 15.960938 -15.097656 15.960938 -15.804688 L 15.960938 -17.515625 C 15.960938 -18.203125 15.519531 -18.292969 15.339844 -18.292969 Z M 15.339844 -18.292969 "/></g></g></g><g fill="#000000" fill-opacity="1"><g transform="translate(171.020821, 272.735519)"><g><path d="M 17.117188 -18.292969 L 2.417969 -18.292969 C 2.21875 -18.292969 1.777344 -18.226562 1.777344 -17.539062 L 1.777344 -15.804688 C 1.777344 -15.074219 2.21875 -15.007812 2.417969 -15.007812 L 8.125 -15.007812 L 8.125 -0.753906 C 8.125 -0.0664062 8.570312 0 8.746094 0 L 10.789062 0 C 10.988281 0 11.410156 -0.0664062 11.410156 -0.753906 L 11.410156 -15.007812 L 17.117188 -15.007812 C 17.316406 -15.007812 17.761719 -15.074219 17.761719 -15.804688 L 17.761719 -17.539062 C 17.761719 -18.226562 17.316406 -18.292969 17.117188 -18.292969 Z M 17.117188 -18.292969 "/></g></g></g><g fill="#000000" fill-opacity="1"><g transform="translate(191.662426, 272.735519)"><g><path d="M 16.917969 -12.988281 C 16.917969 -12.964844 16.917969 -12.941406 16.917969 -12.921875 C 16.917969 -12.898438 16.917969 -12.875 16.917969 -12.855469 Z M 17.339844 -0.953125 L 13.453125 -7.613281 C 14.539062 -7.746094 15.382812 -8.214844 15.941406 -8.96875 C 16.5625 -9.878906 16.894531 -11.1875 16.917969 -12.921875 C 16.894531 -14.652344 16.5625 -15.960938 15.941406 -16.871094 C 15.273438 -17.828125 14.164062 -18.292969 12.652344 -18.292969 L 2.417969 -18.292969 C 2.21875 -18.292969 1.777344 -18.226562 1.777344 -17.515625 L 1.777344 -15.761719 C 1.777344 -15.074219 2.21875 -15.007812 2.417969 -15.007812 L 12.078125 -15.007812 C 12.652344 -15.007812 13.03125 -14.851562 13.253906 -14.519531 C 13.496094 -14.1875 13.609375 -13.652344 13.609375 -12.921875 C 13.609375 -12.1875 13.496094 -11.65625 13.253906 -11.320312 C 13.03125 -10.988281 12.652344 -10.832031 12.078125 -10.832031 L 2.417969 -10.832031 C 2.21875 -10.832031 1.777344 -10.765625 1.777344 -10.078125 L 1.777344 -0.753906 C 1.777344 -0.0664062 2.21875 0.0234375 2.417969 0.0234375 L 4.441406 0.0234375 C 4.640625 0.0234375 5.0625 -0.0664062 5.0625 -0.753906 L 5.0625 -7.546875 L 9.746094 -7.546875 L 13.765625 -0.421875 C 13.851562 -0.289062 13.917969 -0.175781 14.007812 -0.109375 C 14.121094 -0.0234375 14.273438 0.0234375 14.472656 0.0234375 L 16.917969 0.0234375 C 17.183594 0.0234375 17.382812 -0.15625 17.425781 -0.421875 C 17.449219 -0.644531 17.425781 -0.820312 17.339844 -0.953125 Z M 17.339844 -0.953125 "/></g></g></g><g fill="#000000" fill-opacity="1"><g transform="translate(211.9933, 272.735519)"><g><path d="M 4.441406 -18.292969 L 2.398438 -18.292969 C 2.21875 -18.292969 1.777344 -18.203125 1.777344 -17.515625 L 1.777344 -0.753906 C 1.777344 -0.0664062 2.21875 0.0234375 2.398438 0.0234375 L 4.441406 0.0234375 C 4.617188 0.0234375 5.0625 -0.0664062 5.0625 -0.753906 L 5.0625 -17.515625 C 5.0625 -18.203125 4.617188 -18.292969 4.441406 -18.292969 Z M 4.441406 -18.292969 "/></g></g></g><g fill="#000000" fill-opacity="1"><g transform="translate(219.939207, 272.735519)"><g><path d="M 15.140625 -18.292969 L 2.375 -18.292969 C 2.199219 -18.292969 1.777344 -18.203125 1.777344 -17.492188 L 1.777344 -15.785156 C 1.777344 -15.097656 2.199219 -15.007812 2.375 -15.007812 L 15.140625 -15.007812 C 15.316406 -15.007812 15.761719 -15.074219 15.761719 -15.761719 L 15.761719 -17.515625 C 15.761719 -18.226562 15.316406 -18.292969 15.140625 -18.292969 Z M 15.03125 -10.855469 L 3.574219 -10.832031 C 2.929688 -10.789062 2.375 -10.433594 2.042969 -9.902344 C 1.953125 -9.722656 1.863281 -9.523438 1.820312 -9.324219 L 1.777344 -0.753906 C 1.777344 -0.0664062 2.21875 0.0234375 2.398438 0.0234375 L 4.441406 0.0234375 C 4.617188 0.0234375 5.0625 -0.0664062 5.0625 -0.753906 C 5.0625 -0.753906 5.082031 -7.570312 5.105469 -7.570312 L 15.03125 -7.570312 C 15.207031 -7.570312 15.652344 -7.636719 15.652344 -8.324219 L 15.652344 -10.078125 C 15.652344 -10.765625 15.207031 -10.855469 15.03125 -10.855469 Z M 15.03125 -10.855469 "/></g></g></g><g fill="#000000" fill-opacity="1"><g transform="translate(238.583245, 272.735519)"><g><path d="M 14.585938 -3.285156 L 7.371094 -3.285156 C 6.902344 -3.285156 6.527344 -3.328125 6.214844 -3.441406 C 5.949219 -3.53125 5.726562 -3.683594 5.570312 -3.929688 C 5.394531 -4.171875 5.261719 -4.507812 5.195312 -4.90625 C 5.105469 -5.351562 5.082031 -5.90625 5.082031 -6.570312 L 5.082031 -17.515625 C 5.082031 -18.226562 4.640625 -18.292969 4.460938 -18.292969 L 2.417969 -18.292969 C 2.21875 -18.292969 1.777344 -18.226562 1.777344 -17.515625 L 1.777344 -6.949219 C 1.777344 -5.707031 1.886719 -4.640625 2.085938 -3.773438 C 2.285156 -2.886719 2.597656 -2.152344 3.042969 -1.597656 C 3.484375 -1.019531 4.0625 -0.597656 4.773438 -0.355469 C 5.4375 -0.109375 6.28125 0.0234375 7.257812 0.0234375 L 14.585938 0.0234375 C 14.785156 0.0234375 15.207031 -0.0664062 15.207031 -0.753906 L 15.207031 -2.507812 C 15.207031 -3.195312 14.785156 -3.285156 14.585938 -3.285156 Z M 14.585938 -3.285156 "/></g></g></g><g fill="#000000" fill-opacity="1"><g transform="translate(256.672393, 272.735519)"><g><path d="M 18.203125 -18.292969 L 15.738281 -18.292969 C 15.539062 -18.292969 15.273438 -18.226562 15.097656 -17.894531 L 10.210938 -8.992188 L 5.371094 -17.871094 C 5.195312 -18.226562 4.929688 -18.292969 4.730469 -18.292969 L 2.199219 -18.292969 C 1.996094 -18.292969 1.84375 -18.183594 1.796875 -17.980469 C 1.753906 -17.828125 1.777344 -17.648438 1.863281 -17.492188 L 8.523438 -5.617188 L 8.523438 -0.753906 C 8.523438 -0.0664062 8.96875 0 9.144531 0 L 11.1875 0 C 11.367188 0 11.808594 -0.0664062 11.808594 -0.753906 L 11.808594 -5.617188 L 18.535156 -17.492188 C 18.625 -17.648438 18.648438 -17.828125 18.605469 -18.003906 C 18.535156 -18.183594 18.382812 -18.292969 18.203125 -18.292969 Z M 18.203125 -18.292969 "/></g></g></g></svg>