<?xml version="1.0" encoding="UTF-8" standalone="no"?>
<svg
   width="183.43576"
   zoomAndPan="magnify"
   viewBox="0 0 183.43576 169.21901"
   height="169.21901"
   preserveAspectRatio="xMidYMid"
   version="1.0"
   id="svg74"
   xmlns="http://www.w3.org/2000/svg"
   xmlns:svg="http://www.w3.org/2000/svg">
  <defs
     id="defs22">
    <clipPath
       id="f799c83bfd">
      <path
         d="m 110.36328,158.75391 h 154.5 v 87 h -154.5 z m 0,0"
         clip-rule="nonzero"
         id="path1" />
    </clipPath>
    <clipPath
       id="7794839981">
      <path
         d="M 128.75391,199 H 148 v 31.47266 h -19.24609 z m 0,0"
         clip-rule="nonzero"
         id="path2" />
    </clipPath>
    <clipPath
       id="a06dea72d9">
      <path
         d="m 158,195 h 20 v 35.47266 h -20 z m 0,0"
         clip-rule="nonzero"
         id="path3" />
    </clipPath>
    <clipPath
       id="e269844781">
      <path
         d="m 188,184 h 20 v 46.47266 h -20 z m 0,0"
         clip-rule="nonzero"
         id="path4" />
    </clipPath>
    <clipPath
       id="1417e61c86">
      <path
         d="m 218,166 h 19.50391 v 64.47266 H 218 Z m 0,0"
         clip-rule="nonzero"
         id="path5" />
    </clipPath>
    <clipPath
       id="a5fa93ec79">
      <path
         d="m 128.75391,116.47266 h 108.75 V 190 h -108.75 z m 0,0"
         clip-rule="nonzero"
         id="path6" />
    </clipPath>
    <clipPath
       id="d937094b42">
      <path
         d="m 199.18359,109.50781 h 59.92578 V 127 h -59.92578 z m 0,0"
         clip-rule="nonzero"
         id="path7" />
    </clipPath>
    <clipPath
       id="384730fc70">
      <path
         d="m 207.92969,109.50781 h 42.37109 c 2.32031,0 4.54297,0.92188 6.18359,2.5625 1.64063,1.64063 2.5625,3.86328 2.5625,6.1836 0,2.32031 -0.92187,4.54297 -2.5625,6.18359 -1.64062,1.64063 -3.86328,2.5625 -6.18359,2.5625 h -42.37109 c -2.32032,0 -4.54297,-0.92187 -6.1836,-2.5625 -1.64062,-1.64062 -2.5625,-3.86328 -2.5625,-6.18359 0,-2.32032 0.92188,-4.54297 2.5625,-6.1836 1.64063,-1.64062 3.86328,-2.5625 6.1836,-2.5625 z m 0,0"
         clip-rule="nonzero"
         id="path8" />
    </clipPath>
    <clipPath
       id="2151049465">
      <path
         d="M 115.70313,172.35547 H 183 v 20.48828 h -67.29687 z m 0,0"
         clip-rule="nonzero"
         id="path9" />
    </clipPath>
    <clipPath
       id="a9bb854531">
      <path
         d="m 125.94531,172.35547 h 46.76172 c 5.66016,0 10.24609,4.58594 10.24609,10.24609 0,5.65625 -4.58593,10.24219 -10.24609,10.24219 h -46.76172 c -5.65625,0 -10.24218,-4.58594 -10.24218,-10.24219 0,-5.66015 4.58593,-10.24609 10.24218,-10.24609 z m 0,0"
         clip-rule="nonzero"
         id="path10" />
    </clipPath>
    <clipPath
       id="f0d3ff19d1">
      <path
         d="m 149.32812,165.10547 h 59.92579 v 17.49609 h -59.92579 z m 0,0"
         clip-rule="nonzero"
         id="path11" />
    </clipPath>
    <clipPath
       id="c1458e90a1">
      <path
         d="m 158.07422,165.10547 h 42.37109 c 2.32031,0 4.54297,0.92187 6.1836,2.5625 1.64062,1.64062 2.5625,3.86719 2.5625,6.1875 0,2.3164 -0.92188,4.54297 -2.5625,6.18359 -1.64063,1.64063 -3.86329,2.5625 -6.1836,2.5625 h -42.37109 c -2.32031,0 -4.54297,-0.92187 -6.1836,-2.5625 -1.64062,-1.64062 -2.5625,-3.86719 -2.5625,-6.18359 0,-2.32031 0.92188,-4.54688 2.5625,-6.1875 1.64063,-1.64063 3.86329,-2.5625 6.1836,-2.5625 z m 0,0"
         clip-rule="nonzero"
         id="path12" />
    </clipPath>
    <clipPath
       id="b251c9648c">
      <path
         d="m 171.66797,155.85547 h 74.23437 v 12.73047 h -74.23437 z m 0,0"
         clip-rule="nonzero"
         id="path13" />
    </clipPath>
    <clipPath
       id="ea9f4fdd41">
      <path
         d="m 178.03125,155.85547 h 61.47266 c 3.51562,0 6.36328,2.85156 6.36328,6.36719 0,3.51562 -2.84766,6.36328 -6.36328,6.36328 h -61.47266 c -3.51172,0 -6.36328,-2.84766 -6.36328,-6.36328 0,-3.51563 2.85156,-6.36719 6.36328,-6.36719 z m 0,0"
         clip-rule="nonzero"
         id="path14" />
    </clipPath>
    <clipPath
       id="6f07b6a28f">
      <path
         d="m 182.95312,135.36719 h 67.30469 v 20.48828 h -67.30469 z m 0,0"
         clip-rule="nonzero"
         id="path15" />
    </clipPath>
    <clipPath
       id="7e48455ce7">
      <path
         d="m 193.19531,135.36719 h 46.76172 c 5.65625,0 10.24609,4.58984 10.24609,10.24609 0,5.65625 -4.58984,10.24219 -10.24609,10.24219 h -46.76172 c -5.65625,0 -10.24219,-4.58594 -10.24219,-10.24219 0,-5.65625 4.58594,-10.24609 10.24219,-10.24609 z m 0,0"
         clip-rule="nonzero"
         id="path16" />
    </clipPath>
    <clipPath
       id="c41ff71526">
      <path
         d="m 191.79687,118.25391 h 67.3086 v 20.48828 h -67.3086 z m 0,0"
         clip-rule="nonzero"
         id="path17" />
    </clipPath>
    <clipPath
       id="82558e6086">
      <path
         d="m 202.04297,118.25391 h 46.76172 c 5.65625,0 10.24218,4.58593 10.24218,10.24218 0,5.66016 -4.58593,10.2461 -10.24218,10.2461 h -46.76172 c -5.66016,0 -10.2461,-4.58594 -10.2461,-10.2461 0,-5.65625 4.58594,-10.24218 10.2461,-10.24218 z m 0,0"
         clip-rule="nonzero"
         id="path18" />
    </clipPath>
    <clipPath
       id="45f7f2125f">
      <path
         d="m 173,111 h 76 v 71 h -76 z m 0,0"
         clip-rule="nonzero"
         id="path19" />
    </clipPath>
    <clipPath
       id="b9c754249b">
      <path
         d="m 168.19141,165.67187 65.05468,-67.507808 37.80078,36.429688 -65.05078,67.50781 z m 0,0"
         clip-rule="nonzero"
         id="path20" />
    </clipPath>
    <clipPath
       id="eb39837003">
      <path
         d="m 168.19141,165.67187 65.05468,-67.507808 37.80078,36.429688 -65.05078,67.50781 z m 0,0"
         clip-rule="nonzero"
         id="path21" />
    </clipPath>
    <clipPath
       id="a9e2aeb642">
      <path
         d="m 168.19141,165.67187 65.05468,-67.507808 37.80078,36.429688 -65.05078,67.50781 z m 0,0"
         clip-rule="nonzero"
         id="path22" />
    </clipPath>
  </defs>
  <rect
     x="0"
     width="183.43576"
     fill="#ffffff"
     y="0"
     height="169.21901"
     fill-opacity="1"
     id="rect23"
     style="stroke-width:0.39152" />
  <g
     clip-path="url(#f799c83bfd)"
     id="g23"
     transform="translate(-93.455765,-108.41905)">
    <path
       fill="#000000"
       d="m 258.28516,177.18359 h -6.51954 v -8.48437 c 0,-5.45313 -4.43359,-9.89063 -9.88671,-9.89063 H 120.23047 c -5.45313,0 -9.89063,4.4375 -9.89063,9.89063 v 66.65625 c 0,5.45312 4.4375,9.89062 9.89063,9.89062 h 121.64844 c 5.45312,0 9.88671,-4.4375 9.88671,-9.89062 v -8.48828 h 6.51954 c 3.51171,0 6.36718,-2.85157 6.36718,-6.35547 v -36.96094 c 0.004,-3.51172 -2.85547,-6.36719 -6.36718,-6.36719 z m 2.41406,43.32422 c 0,1.32422 -1.08203,2.39844 -2.41016,2.39844 h -8.49609 c -1.08985,0 -1.97656,0.88672 -1.97656,1.98047 v 10.46484 c 0,3.27344 -2.66407,5.9336 -5.9336,5.9336 H 120.23047 c -3.26953,0 -5.93359,-2.66016 -5.93359,-5.9336 v -66.65234 c 0,-3.27344 2.66406,-5.9336 5.93359,-5.9336 h 121.64844 c 3.26953,0 5.93359,2.66016 5.93359,5.9336 v 10.46094 c 0,1.08984 0.88672,1.97656 1.97656,1.97656 h 8.4961 c 1.32812,0 2.41015,1.08203 2.41015,2.41015 v 36.96094 z m 0,0"
       fill-opacity="1"
       fill-rule="nonzero"
       id="path23" />
  </g>
  <g
     clip-path="url(#7794839981)"
     id="g24"
     transform="translate(-93.455765,-108.41905)"
     style="fill:#3459e6;fill-opacity:1">
    <path
       fill="#2f93ff"
       d="m 128.76172,199.50391 h 19.10156 v 31.17968 h -19.10156 z m 0,0"
       fill-opacity="1"
       fill-rule="nonzero"
       id="path24"
       style="fill:#3459e6;fill-opacity:1" />
  </g>
  <g
     clip-path="url(#a06dea72d9)"
     id="g25"
     transform="translate(-93.455765,-108.41905)"
     style="fill:#3459e6;fill-opacity:1">
    <path
       fill="#2f93ff"
       d="m 158.38281,230.68359 v -35.46875 h 19.26563 v 35.46875 z m 0,0"
       fill-opacity="1"
       fill-rule="nonzero"
       id="path25"
       style="fill:#3459e6;fill-opacity:1" />
  </g>
  <g
     clip-path="url(#e269844781)"
     id="g26"
     transform="translate(-93.455765,-108.41905)"
     style="fill:#3459e6;fill-opacity:1">
    <path
       fill="#2f93ff"
       d="m 188.01172,184.6875 h 19.8789 v 45.99609 h -19.8789 z m 0,0"
       fill-opacity="1"
       fill-rule="nonzero"
       id="path26"
       style="fill:#3459e6;fill-opacity:1" />
  </g>
  <g
     clip-path="url(#1417e61c86)"
     id="g27"
     transform="translate(-93.455765,-108.41905)"
     style="fill:#3459e6;fill-opacity:1">
    <path
       fill="#2f93ff"
       d="M 218.41406,166.36719 H 237.125 v 64.3164 h -18.71094 z m 0,0"
       fill-opacity="1"
       fill-rule="nonzero"
       id="path27"
       style="fill:#3459e6;fill-opacity:1" />
  </g>
  <g
     clip-path="url(#a5fa93ec79)"
     id="g28"
     transform="translate(-93.455765,-108.41905)">
    <path
       fill="#2f93ff"
       d="m 128.76172,188.81641 c 0,0 50.67187,-6.84375 85.36719,-52.85157 l -11.30469,-7.40625 34.30859,-12.08593 v 36.17187 l -9.35547,-8.10547 c 0,0 -42.49609,48.01172 -99.01562,44.27735 z m 0,0"
       fill-opacity="1"
       fill-rule="nonzero"
       id="path28" />
  </g>
  <g
     clip-path="url(#d937094b42)"
     id="g30"
     transform="translate(-93.455765,-108.41905)">
    <g
       clip-path="url(#384730fc70)"
       id="g29">
      <path
         fill="#ffffff"
         d="m 199.18359,109.50781 h 59.85938 V 127 h -59.85938 z m 0,0"
         fill-opacity="1"
         fill-rule="nonzero"
         id="path29" />
    </g>
  </g>
  <g
     clip-path="url(#2151049465)"
     id="g32"
     transform="translate(-93.455765,-108.41905)">
    <g
       clip-path="url(#a9bb854531)"
       id="g31">
      <path
         fill="#ffffff"
         d="m 115.70313,172.35547 h 67.22656 v 20.48828 h -67.22656 z m 0,0"
         fill-opacity="1"
         fill-rule="nonzero"
         id="path30" />
    </g>
  </g>
  <g
     clip-path="url(#f0d3ff19d1)"
     id="g34"
     transform="translate(-93.455765,-108.41905)">
    <g
       clip-path="url(#c1458e90a1)"
       id="g33">
      <path
         fill="#ffffff"
         d="m 149.32812,165.10547 h 59.85938 v 17.49609 h -59.85938 z m 0,0"
         fill-opacity="1"
         fill-rule="nonzero"
         id="path32" />
    </g>
  </g>
  <g
     clip-path="url(#b251c9648c)"
     id="g36"
     transform="translate(-93.455765,-108.41905)">
    <g
       clip-path="url(#ea9f4fdd41)"
       id="g35">
      <path
         fill="#ffffff"
         d="m 171.66797,155.85547 h 74.1875 v 12.73047 h -74.1875 z m 0,0"
         fill-opacity="1"
         fill-rule="nonzero"
         id="path34" />
    </g>
  </g>
  <g
     clip-path="url(#6f07b6a28f)"
     id="g38"
     transform="translate(-93.455765,-108.41905)">
    <g
       clip-path="url(#7e48455ce7)"
       id="g37">
      <path
         fill="#ffffff"
         d="m 182.95312,135.36719 h 67.22657 v 20.48828 h -67.22657 z m 0,0"
         fill-opacity="1"
         fill-rule="nonzero"
         id="path36" />
    </g>
  </g>
  <g
     clip-path="url(#c41ff71526)"
     id="g40"
     transform="translate(-93.455765,-108.41905)">
    <g
       clip-path="url(#82558e6086)"
       id="g39">
      <path
         fill="#ffffff"
         d="m 191.79687,118.25391 h 67.22657 v 20.48828 h -67.22657 z m 0,0"
         fill-opacity="1"
         fill-rule="nonzero"
         id="path38" />
    </g>
  </g>
  <g
     clip-path="url(#45f7f2125f)"
     id="g44"
     transform="translate(-93.455765,-108.41905)">
    <g
       clip-path="url(#b9c754249b)"
       id="g43">
      <g
         clip-path="url(#eb39837003)"
         id="g42">
        <g
           clip-path="url(#a9e2aeb642)"
           id="g41">
          <path
             fill="#000000"
             d="m 240.69141,113.69922 c 2.5039,-1.13281 4.89453,-3.61328 6.91015,-1.67188 4.75781,4.58594 -11.44922,27.08203 -12.16015,27.81641 l 7.90234,20.19922 c 0.65234,1.51953 0.30859,2.42969 -0.3125,3.25 l -1.85547,2.29297 -9.88281,-9.52344 -7.64844,0.60547 c -0.44141,0.46094 -2.55859,3.5664 -7.87109,9.07812 -6.19922,6.4375 -8.15625,7.92188 -8.60157,8.37891 l 2.40625,3.73437 c 0.46094,0.625 -0.77343,2.44922 -1.40234,2.3711 l -7.58594,-0.92188 c -0.61718,0.64063 -2.39453,2.1211 -2.94531,1.58985 -0.73047,-0.70313 -0.73828,-1.24219 -0.56641,-1.78516 l -13.23437,0.72266 c -0.89844,0.0156 -0.21875,-2.51953 1.92578,-3.28516 l 9.76172,-3.71484 -5.75391,-4.65625 1.23438,-1.82422 c 0.4414,-0.64063 2.41797,-1.04297 3.13281,-1.0586 l 9.73438,0.15625 6.41796,-9.77343 -7.65625,0.0742 -28.80078,7.16796 0.31641,-2.70703 c 0,0 -0.0117,-0.72265 1.22656,-2.00781 l 48.55078,-22.53516 8.70313,-13.24609 c 0.35156,-0.54687 1.11328,-3.53515 3.32812,-5.83594 2.39453,-2.48046 2.84766,-2.04296 4.72657,-2.89453"
             fill-opacity="1"
             fill-rule="nonzero"
             id="path40" />
        </g>
      </g>
    </g>
  </g>
  <g
     fill="#000000"
     fill-opacity="1"
     id="g47"
     transform="translate(-93.455765,-108.41905)">
    <g
       transform="translate(96.799802,272.73552)"
       id="g46">
      <g
         id="g45">
        <path
           d="m 15.117188,-3.972656 h -7.8125 c -0.46875,0 -0.84375,-0.066406 -1.15625,-0.15625 -0.289063,-0.109375 -0.488282,-0.265625 -0.664063,-0.488282 -0.179687,-0.246093 -0.3125,-0.578124 -0.378906,-1 -0.023438,-0.109374 -0.023438,-0.265624 -0.042969,-0.375 0,0 0.019531,-1.601562 0.042969,-1.601562 h 9.925781 c 0.175781,0 0.621094,-0.085938 0.621094,-0.777344 V -10.125 c 0,-0.6875 -0.445313,-0.753906 -0.621094,-0.753906 l -11.457031,0.02344 C 2.929688,-10.8125 2.375,-10.476562 2.066406,-9.921875 1.953125,-9.746094 1.863281,-9.566406 1.820312,-9.367188 l -0.042968,2.796876 v 0.109374 c 0.019531,1.042969 0.132812,1.933594 0.289062,2.664063 0.199219,0.890625 0.53125,1.621094 0.953125,2.175781 0.445313,0.578125 1.019531,0.976563 1.730469,1.222656 0.6875,0.265626 1.511719,0.3750005 2.488281,0.3750005 h 7.878907 c 0.199218,0 0.644531,-0.0664063 0.644531,-0.7539065 V -3.21875 c 0,-0.6875 -0.445313,-0.753906 -0.644531,-0.753906 z m 0.02344,-14.363282 H 2.375 c -0.175781,0 -0.597656,0.08594 -0.597656,0.796876 v 1.734374 c 0,0.6875 0.421875,0.753907 0.597656,0.753907 l 12.765625,0.01953 c 0.175781,0 0.621094,-0.08594 0.621094,-0.773438 v -1.753906 c 0,-0.691406 -0.445313,-0.777344 -0.621094,-0.777344 z m 0,0"
           id="path44" />
      </g>
    </g>
  </g>
  <g
     fill="#000000"
     fill-opacity="1"
     id="g50"
     transform="translate(-93.455765,-108.41905)">
    <g
       transform="translate(115.44384,272.73552)"
       id="g49">
      <g
         id="g48">
        <path
           d="M 14.585938,-3.285156 H 7.371094 c -0.46875,0 -0.84375,-0.042969 -1.15625,-0.15625 C 5.949219,-3.53125 5.726562,-3.683594 5.570312,-3.929688 5.394531,-4.171875 5.261719,-4.507812 5.195312,-4.90625 c -0.089843,-0.445312 -0.113281,-1 -0.113281,-1.664062 v -10.945313 c 0,-0.710937 -0.441406,-0.777344 -0.621093,-0.777344 H 2.417969 c -0.199219,0 -0.640625,0.06641 -0.640625,0.777344 v 10.566406 c 0,1.242188 0.109375,2.308594 0.308594,3.175781 0.199218,0.886719 0.511718,1.621094 0.957031,2.175782 0.441406,0.578125 1.019531,1 1.730469,1.242187 0.664062,0.246094 1.507812,0.3789065 2.484374,0.3789065 h 7.328126 c 0.199218,0 0.621093,-0.0898437 0.621093,-0.7773435 v -1.753906 c 0,-0.6875 -0.421875,-0.777344 -0.621093,-0.777344 z m 0,0"
           id="path47" />
      </g>
    </g>
  </g>
  <g
     fill="#000000"
     fill-opacity="1"
     id="g53"
     transform="translate(-93.455765,-108.41905)">
    <g
       transform="translate(133.53299,272.73552)"
       id="g52">
      <g
         id="g51">
        <path
           d="m 15.117188,-3.972656 h -7.8125 c -0.46875,0 -0.84375,-0.066406 -1.15625,-0.15625 -0.289063,-0.109375 -0.488282,-0.265625 -0.664063,-0.488282 -0.179687,-0.246093 -0.3125,-0.578124 -0.378906,-1 -0.023438,-0.109374 -0.023438,-0.265624 -0.042969,-0.375 0,0 0.019531,-1.601562 0.042969,-1.601562 h 9.925781 c 0.175781,0 0.621094,-0.085938 0.621094,-0.777344 V -10.125 c 0,-0.6875 -0.445313,-0.753906 -0.621094,-0.753906 l -11.457031,0.02344 C 2.929688,-10.8125 2.375,-10.476562 2.066406,-9.921875 1.953125,-9.746094 1.863281,-9.566406 1.820312,-9.367188 l -0.042968,2.796876 v 0.109374 c 0.019531,1.042969 0.132812,1.933594 0.289062,2.664063 0.199219,0.890625 0.53125,1.621094 0.953125,2.175781 0.445313,0.578125 1.019531,0.976563 1.730469,1.222656 0.6875,0.265626 1.511719,0.3750005 2.488281,0.3750005 h 7.878907 c 0.199218,0 0.644531,-0.0664063 0.644531,-0.7539065 V -3.21875 c 0,-0.6875 -0.445313,-0.753906 -0.644531,-0.753906 z m 0.02344,-14.363282 H 2.375 c -0.175781,0 -0.597656,0.08594 -0.597656,0.796876 v 1.734374 c 0,0.6875 0.421875,0.753907 0.597656,0.753907 l 12.765625,0.01953 c 0.175781,0 0.621094,-0.08594 0.621094,-0.773438 v -1.753906 c 0,-0.691406 -0.445313,-0.777344 -0.621094,-0.777344 z m 0,0"
           id="path50" />
      </g>
    </g>
  </g>
  <g
     fill="#000000"
     fill-opacity="1"
     id="g56"
     transform="translate(-93.455765,-108.41905)">
    <g
       transform="translate(152.17703,272.73552)"
       id="g55">
      <g
         id="g54">
        <path
           d="M 15.339844,-18.292969 H 7.257812 c -0.976562,0 -1.820312,0.132813 -2.507812,0.378907 -0.710938,0.265624 -1.285156,0.6875 -1.707031,1.242187 -0.445313,0.554687 -0.777344,1.289063 -0.976563,2.175781 -0.203125,0.867188 -0.289062,1.929688 -0.289062,3.152344 v 4.394531 c 0,1.242188 0.085937,2.308594 0.289062,3.199219 0.199219,0.863281 0.53125,1.597656 0.976563,2.171875 0.441406,0.558594 1.019531,0.980469 1.707031,1.222656 0.6875,0.246094 1.53125,0.3789065 2.507812,0.3789065 h 8.082032 c 0.179687,0 0.621094,-0.0898437 0.621094,-0.7773435 v -1.753906 c 0,-0.6875 -0.441407,-0.777344 -0.621094,-0.777344 h -7.96875 c -0.46875,0 -0.867188,-0.042969 -1.15625,-0.15625 C 5.925781,-3.53125 5.726562,-3.683594 5.550781,-3.929688 5.371094,-4.152344 5.261719,-4.484375 5.171875,-4.90625 5.105469,-5.351562 5.0625,-5.90625 5.0625,-6.570312 v -5.171876 c 0,-0.667968 0.042969,-1.222656 0.109375,-1.644531 0.089844,-0.421875 0.199219,-0.734375 0.378906,-0.976562 0.175781,-0.246094 0.375,-0.398438 0.664063,-0.488281 0.289062,-0.109376 0.6875,-0.15625 1.15625,-0.15625 h 7.96875 c 0.179687,0 0.621094,-0.08984 0.621094,-0.796876 v -1.710937 c 0,-0.6875 -0.441407,-0.777344 -0.621094,-0.777344 z m 0,0"
           id="path53" />
      </g>
    </g>
  </g>
  <g
     fill="#000000"
     fill-opacity="1"
     id="g59"
     transform="translate(-93.455765,-108.41905)">
    <g
       transform="translate(171.02082,272.73552)"
       id="g58">
      <g
         id="g57">
        <path
           d="M 17.117188,-18.292969 H 2.417969 c -0.199219,0 -0.640625,0.06641 -0.640625,0.753907 v 1.734374 c 0,0.730469 0.441406,0.796876 0.640625,0.796876 H 8.125 V -0.753906 C 8.125,-0.0664062 8.570312,0 8.746094,0 h 2.042968 c 0.199219,0 0.621094,-0.0664062 0.621094,-0.753906 v -14.253906 h 5.707032 c 0.199218,0 0.644531,-0.06641 0.644531,-0.796876 v -1.734374 c 0,-0.6875 -0.445313,-0.753907 -0.644531,-0.753907 z m 0,0"
           id="path56" />
      </g>
    </g>
  </g>
  <g
     fill="#000000"
     fill-opacity="1"
     id="g62"
     transform="translate(-93.455765,-108.41905)">
    <g
       transform="translate(191.66243,272.73552)"
       id="g61">
      <g
         id="g60">
        <path
           d="m 16.917969,-12.988281 c 0,0.02344 0,0.04687 0,0.06641 0,0.02344 0,0.04687 0,0.06641 z m 0.421875,12.035156 -3.886719,-6.660156 c 1.085937,-0.132813 1.929687,-0.601563 2.488281,-1.355469 0.621094,-0.910156 0.953125,-2.21875 0.976563,-3.953125 -0.02344,-1.730469 -0.355469,-3.039063 -0.976563,-3.949219 -0.667968,-0.957031 -1.777344,-1.421875 -3.289062,-1.421875 H 2.417969 c -0.199219,0 -0.640625,0.06641 -0.640625,0.777344 v 1.753906 c 0,0.6875 0.441406,0.753907 0.640625,0.753907 h 9.660156 c 0.574219,0 0.953125,0.15625 1.175781,0.488281 0.242188,0.332031 0.355469,0.867187 0.355469,1.597656 0,0.734375 -0.113281,1.265625 -0.355469,1.601563 -0.222656,0.332031 -0.601562,0.488281 -1.175781,0.488281 H 2.417969 c -0.199219,0 -0.640625,0.06641 -0.640625,0.753906 v 9.324219 c 0,0.6874998 0.441406,0.7773435 0.640625,0.7773435 h 2.023437 c 0.199219,0 0.621094,-0.0898437 0.621094,-0.7773435 v -6.792969 h 4.683594 l 4.019531,7.125 c 0.08594,0.132813 0.152344,0.246094 0.242187,0.3125 0.113282,0.0859375 0.265626,0.1328125 0.464844,0.1328125 h 2.445313 c 0.265625,0 0.464843,-0.1796875 0.507812,-0.4453125 0.02344,-0.222656 0,-0.398437 -0.08594,-0.53125 z m 0,0"
           id="path59" />
      </g>
    </g>
  </g>
  <g
     fill="#000000"
     fill-opacity="1"
     id="g65"
     transform="translate(-93.455765,-108.41905)">
    <g
       transform="translate(211.9933,272.73552)"
       id="g64">
      <g
         id="g63">
        <path
           d="M 4.441406,-18.292969 H 2.398438 c -0.179688,0 -0.621094,0.08984 -0.621094,0.777344 v 16.761719 c 0,0.6874998 0.441406,0.7773435 0.621094,0.7773435 h 2.042968 c 0.175782,0 0.621094,-0.0898437 0.621094,-0.7773435 v -16.761719 c 0,-0.6875 -0.445312,-0.777344 -0.621094,-0.777344 z m 0,0"
           id="path62" />
      </g>
    </g>
  </g>
  <g
     fill="#000000"
     fill-opacity="1"
     id="g68"
     transform="translate(-93.455765,-108.41905)">
    <g
       transform="translate(219.93921,272.73552)"
       id="g67">
      <g
         id="g66">
        <path
           d="M 15.140625,-18.292969 H 2.375 c -0.175781,0 -0.597656,0.08984 -0.597656,0.800781 v 1.707032 c 0,0.6875 0.421875,0.777344 0.597656,0.777344 h 12.765625 c 0.175781,0 0.621094,-0.06641 0.621094,-0.753907 v -1.753906 c 0,-0.710937 -0.445313,-0.777344 -0.621094,-0.777344 z m -0.109375,7.4375 -11.457031,0.02344 c -0.644531,0.04297 -1.199219,0.398437 -1.53125,0.929687 -0.089844,0.179688 -0.179688,0.378906 -0.222657,0.578125 l -0.042968,8.570313 c 0,0.6874998 0.441406,0.7773435 0.621094,0.7773435 h 2.042968 c 0.175782,0 0.621094,-0.0898437 0.621094,-0.7773435 0,0 0.019531,-6.816406 0.042969,-6.816406 h 9.925781 c 0.175781,0 0.621094,-0.066407 0.621094,-0.753907 v -1.753906 c 0,-0.6875 -0.445313,-0.777344 -0.621094,-0.777344 z m 0,0"
           id="path65" />
      </g>
    </g>
  </g>
  <g
     fill="#000000"
     fill-opacity="1"
     id="g71"
     transform="translate(-93.455765,-108.41905)">
    <g
       transform="translate(238.58324,272.73552)"
       id="g70">
      <g
         id="g69">
        <path
           d="M 14.585938,-3.285156 H 7.371094 c -0.46875,0 -0.84375,-0.042969 -1.15625,-0.15625 C 5.949219,-3.53125 5.726562,-3.683594 5.570312,-3.929688 5.394531,-4.171875 5.261719,-4.507812 5.195312,-4.90625 c -0.089843,-0.445312 -0.113281,-1 -0.113281,-1.664062 v -10.945313 c 0,-0.710937 -0.441406,-0.777344 -0.621093,-0.777344 H 2.417969 c -0.199219,0 -0.640625,0.06641 -0.640625,0.777344 v 10.566406 c 0,1.242188 0.109375,2.308594 0.308594,3.175781 0.199218,0.886719 0.511718,1.621094 0.957031,2.175782 0.441406,0.578125 1.019531,1 1.730469,1.242187 0.664062,0.246094 1.507812,0.3789065 2.484374,0.3789065 h 7.328126 c 0.199218,0 0.621093,-0.0898437 0.621093,-0.7773435 v -1.753906 c 0,-0.6875 -0.421875,-0.777344 -0.621093,-0.777344 z m 0,0"
           id="path68" />
      </g>
    </g>
  </g>
  <g
     fill="#000000"
     fill-opacity="1"
     id="g74"
     transform="translate(-93.455765,-108.41905)">
    <g
       transform="translate(256.67239,272.73552)"
       id="g73">
      <g
         id="g72">
        <path
           d="m 18.203125,-18.292969 h -2.464844 c -0.199219,0 -0.464843,0.06641 -0.640625,0.398438 l -4.886718,8.902343 -4.839844,-8.878906 c -0.175782,-0.355468 -0.441406,-0.421875 -0.640625,-0.421875 h -2.53125 c -0.203125,0 -0.355469,0.109375 -0.402344,0.3125 -0.042969,0.152344 -0.019531,0.332031 0.066406,0.488281 l 6.660157,11.875 v 4.863282 C 8.523438,-0.0664062 8.96875,0 9.144531,0 H 11.1875 c 0.179688,0 0.621094,-0.0664062 0.621094,-0.753906 v -4.863282 l 6.726562,-11.875 c 0.08984,-0.15625 0.113282,-0.335937 0.07031,-0.511718 -0.07031,-0.179688 -0.222657,-0.289063 -0.402344,-0.289063 z m 0,0"
           id="path71" />
      </g>
    </g>
  </g>
</svg>
